<svg width="920" height="300" viewBox="0 0 920 300" fill="none" xmlns="http://www.w3.org/2000/svg">
  <style>
    text { font-family: -apple-system, BlinkMacSystemFont, "Segoe UI", "Hiragino Kaku Gothic ProN", "Noto Sans CJK JP", Meiryo, sans-serif; }
  </style>

  <!-- BACKGROUND CARD -->
  <rect width="920" height="300" rx="16" fill="#EEF6FF"/>

  <!-- TOP HEADER -->
  <text x="24" y="32" font-size="14" font-weight="bold" fill="#2D3748">技術力スコア</text>
  <text x="24" y="62" font-size="28" font-weight="bold" fill="#111111">3.39</text>
  <text x="90" y="60" font-size="12" fill="#718096" text-decoration="underline">v2.3.0</text>

  <!-- LEFT BOX (GRAPH) -->
  <rect x="24" y="80" width="360" height="196" rx="12" fill="#FFFFFF"/>
  <g transform="translate(66, 105)">
    <defs>
      <linearGradient id="lapras_grad" x1="0" y1="0" x2="275" y2="0" gradientUnits="userSpaceOnUse">
        <stop offset="0" stop-color="#1ED2E6"/>
        <stop offset="0.14" stop-color="#19B0E9"/>
        <stop offset="0.35" stop-color="#1280EE"/>
        <stop offset="0.45" stop-color="#0F6EF0"/>
        <stop offset="1" stop-color="#003296"/>
      </linearGradient>
    </defs>
    <path fill-rule="evenodd" clip-rule="evenodd" d="M274.149 76L274.149 74.611C233.382 71.4458 214.053 55.277 197.037 40.0867C192.939 36.4289 189.032 32.7793 185.258 29.2553C168.226 13.3482 153.934 0 137.298 0C120.662 0 106.369 13.3483 89.3373 29.2553C85.564 32.7793 81.6563 36.4289 77.5589 40.0868C60.5431 55.277 41.2135 71.4459 0.446778 74.6111L0.446778 76L274.149 76Z" fill="url(#lapras_grad)"/>
    <rect x="174.55" y="0" width="100.44999999999999" height="76" fill="#D7E6F5" opacity="0.6"/>
    <g opacity="0.5">
      <line x1="42.5" y1="0" x2="42.5" y2="76" stroke="#FFFFFF"/>
      <text x="42.5" y="88" text-anchor="middle" fill="#666666" font-size="10">2.00</text>
      <line x1="90" y1="0" x2="90" y2="76" stroke="#FFFFFF"/>
      <text x="90" y="88" text-anchor="middle" fill="#666666" font-size="10">2.50</text>
      <line x1="137.5" y1="0" x2="137.5" y2="76" stroke="#FFFFFF"/>
      <text x="137.5" y="88" text-anchor="middle" fill="#666666" font-size="10">3.00</text>
      <line x1="185" y1="0" x2="185" y2="76" stroke="#FFFFFF"/>
      <text x="185" y="88" text-anchor="middle" fill="#666666" font-size="10">3.50</text>
      <line x1="232.5" y1="0" x2="232.5" y2="76" stroke="#FFFFFF"/>
      <text x="232.5" y="88" text-anchor="middle" fill="#666666" font-size="10">4.00</text>
    </g>
    <line x1="174.55" y1="0" x2="174.55" y2="76" stroke="#FF5A5F" stroke-width="2"/>
    <path d="M7.86602 11.25C7.48111 11.9167 6.51886 11.9167 6.13396 11.25L0.504801 1.5C0.119901 0.833331 0.601026 0 1.37083 0L12.6292 0C13.399 0 13.8801 0.833333 13.4952 1.5L7.86602 11.25Z" transform="translate(168.05, 0)" fill="#FF5A5F"/>
  </g>
  <text x="204" y="240" font-size="15" font-weight="bold" fill="#111111" text-anchor="middle">エンジニアの上位21.44%</text>

  <!-- RIGHT BOX (BREAKDOWN - EXPANDED TO 488px) -->
  <rect x="408" y="80" width="488" height="196" rx="12" fill="#FFFFFF"/>
  <g transform="translate(428, 105)">
    <rect x="0" y="0" width="4" height="16" fill="#111111" rx="2"/>
    <text x="12" y="14" font-size="16" font-weight="bold" fill="#111111">内訳</text>
    
      <text x="0" y="50" font-weight="bold" fill="#111111" font-size="14">GitHub</text>
      <text x="120" y="50" font-weight="bold" fill="#111111" font-size="14" text-anchor="end">3.38</text>
      <text x="145" y="50" fill="#333333" font-size="12">日々の活動量とリポジトリの内容</text>
    
      <text x="0" y="86" font-weight="bold" fill="#111111" font-size="14">技術記事</text>
      <text x="120" y="86" font-weight="bold" fill="#111111" font-size="14" text-anchor="end">3.30</text>
      <text x="145" y="86" fill="#333333" font-size="12">Zenn、Qiitaの記事の内容と反響、AIによる記事内容の評価</text>
    
      <text x="0" y="122" font-weight="bold" fill="#111111" font-size="14">技術イベント</text>
      <text x="120" y="122" font-weight="bold" fill="#111111" font-size="14" text-anchor="end">2.91</text>
      <text x="145" y="122" fill="#333333" font-size="12">技術系イベントの登壇と参加</text>
    
      <text x="0" y="158" font-weight="bold" fill="#111111" font-size="14">タグ個数</text>
      <text x="120" y="158" font-weight="bold" fill="#111111" font-size="14" text-anchor="end">3.43</text>
      <text x="145" y="158" fill="#333333" font-size="12">Lv6以上のスキルタグ数</text>
    
  </g>
</svg>